<svg width="6" height="14" viewBox="0 0 6 14" fill="none" xmlns="http://www.w3.org/2000/svg">
<path d="M5.00547 7.0198C5.00547 7.16053 4.95243 7.28367 4.84636 7.38922L1.82978 10.3841C1.73696 10.4765 1.62205 10.5226 1.48503 10.5226C1.34801 10.5226 1.23089 10.4754 1.13365 10.3808C1.03641 10.2863 0.987793 10.1708 0.987793 10.0345C0.987793 9.89816 1.03862 9.77942 1.14028 9.67827L3.81873 7.0198L1.14028 4.36134C1.03862 4.26019 0.987793 4.14145 0.987793 4.00512C0.987793 3.86879 1.03641 3.75335 1.13365 3.65879C1.23089 3.56424 1.34801 3.51696 1.48503 3.51696C1.62205 3.51696 1.73696 3.56314 1.82978 3.6555L4.84636 6.65039C4.95243 6.75594 5.00547 6.87908 5.00547 7.0198Z" fill="#0066CC"/>
</svg>
